<?xml version="1.0" encoding="UTF-8" standalone="no"?>
<!-- Created with Inkscape (http://www.inkscape.org/) -->

<svg
   xmlns:dc="http://purl.org/dc/elements/1.1/"
   xmlns:cc="http://creativecommons.org/ns#"
   xmlns:rdf="http://www.w3.org/1999/02/22-rdf-syntax-ns#"
   xmlns:svg="http://www.w3.org/2000/svg"
   xmlns="http://www.w3.org/2000/svg"
   xmlns:sodipodi="http://sodipodi.sourceforge.net/DTD/sodipodi-0.dtd"
   xmlns:inkscape="http://www.inkscape.org/namespaces/inkscape"
   width="235"
   height="234.94446"
   id="svg2"
   version="1.1"
   inkscape:version="0.48.4 r9939"
   sodipodi:docname="bell.svg"
   inkscape:export-filename="/home/wlach/bell32.png"
   inkscape:export-xdpi="13.395349"
   inkscape:export-ydpi="13.395349">
  <defs
     id="defs4">
    <inkscape:path-effect
       effect="spiro"
       id="path-effect2995"
       is_visible="true" />
    <inkscape:path-effect
       effect="spiro"
       id="path-effect2991"
       is_visible="true" />
  </defs>
  <sodipodi:namedview
     id="base"
     pagecolor="#ffffff"
     bordercolor="#666666"
     borderopacity="1.0"
     inkscape:pageopacity="0.0"
     inkscape:pageshadow="2"
     inkscape:zoom="0.7"
     inkscape:cx="113.43684"
     inkscape:cy="173.22237"
     inkscape:document-units="px"
     inkscape:current-layer="layer1"
     showgrid="true"
     inkscape:window-width="1213"
     inkscape:window-height="881"
     inkscape:window-x="687"
     inkscape:window-y="43"
     inkscape:window-maximized="0"
     fit-margin-top="4"
     fit-margin-left="10"
     fit-margin-right="10"
     fit-margin-bottom="4">
    <inkscape:grid
       type="xygrid"
       id="grid2985"
       empspacing="5"
       visible="true"
       enabled="true"
       snapvisiblegridlinesonly="true"
       originx="-157.5px"
       originy="-461.00002px" />
  </sodipodi:namedview>
  <metadata
     id="metadata7">
    <rdf:RDF>
      <cc:Work
         rdf:about="">
        <dc:format>image/svg+xml</dc:format>
        <dc:type
           rdf:resource="http://purl.org/dc/dcmitype/StillImage" />
        <dc:title></dc:title>
      </cc:Work>
    </rdf:RDF>
  </metadata>
  <g
     inkscape:label="Layer 1"
     inkscape:groupmode="layer"
     id="layer1"
     transform="translate(-157.5,-356.41774)">
    <path
       style="fill:none;stroke:#428bca;stroke-width:5;stroke-linecap:butt;stroke-linejoin:miter;stroke-miterlimit:4;stroke-opacity:1;stroke-dasharray:none"
       d="m 210,562.36218 c -10,0 -40,0 -40,-20 0,-20 30,-40 40,-50 13.33333,-40 16.66667,-50 30,-90 0,-10 15,-15 25,-15 0,-6.66667 5,-13.33333 5,-20 10,-10 20,0 20,0 0,0 5,13.33333 5,20 10,0 25,5 25,15 10,40 10,50 20,90 10,10 40,30 40,50 0,20 -30,20 -40,20 z"
       inkscape:connector-curvature="0"
       sodipodi:nodetypes="ccccccccccccc"
       inkscape:export-filename="/home/wlach/bell.png"
       inkscape:export-xdpi="20.093023"
       inkscape:export-ydpi="20.093023" />
    <path
       style="fill:none;stroke:#428bca;stroke-width:5;stroke-linecap:butt;stroke-linejoin:miter;stroke-miterlimit:4;stroke-opacity:1;stroke-dasharray:none"
       d="m 255,562.36219 c 0,3.33334 0,11.66666 0,14.99999 10,10.00001 30,10.00001 40,0 0,-3.33333 0,-11.66666 0,-15 -11.66667,0 -28.33333,1e-5 -40,1e-5 z"
       id="path3003"
       inkscape:connector-curvature="0"
       sodipodi:nodetypes="ccccc"
       inkscape:export-filename="/home/wlach/bell.png"
       inkscape:export-xdpi="20.093023"
       inkscape:export-ydpi="20.093023" />
  </g>
</svg>
